<svg id="Capa_1" enable-background="new 0 0 511.991 511.991" height="512" viewBox="0 0 511.991 511.991" width="512" xmlns="http://www.w3.org/2000/svg"><g><g><g><path d="m418.61 151.743c7.172-14.456 1.266-31.976-13.19-39.149l-45.233-22.406c-14.456-7.172-31.976-1.266-39.149 13.19l-89.511 180.599-43.59-72.901c-8.283-13.856-26.203-18.364-40.059-10.081l-43.323 25.892c-13.835 8.283-18.365 26.203-10.082 40.06l85.892 143.671c5.485 9.171 15.544 14.634 26.203 14.212l60.888-2.398c10.681-.422 20.274-6.639 25.004-16.21z" fill="#95d6a4"/><g fill="#78c2a4"><path d="m249.735 314.431 104.605-211.052c2.333-4.702 5.771-8.48 9.831-11.217l-3.984-1.974c-14.456-7.172-31.976-1.266-39.149 13.19l-89.511 180.599z"/><path d="m213.666 410.618-85.892-143.671c-8.283-13.856-3.753-31.776 10.081-40.059l41.584-24.852c-9.123-6.287-21.423-7.1-31.563-1.039l-43.323 25.892c-13.833 8.281-18.363 26.201-10.08 40.058l85.892 143.671c5.485 9.171 15.544 14.634 26.203 14.212l24.675-.972c-7.247-1.931-13.61-6.609-17.577-13.24z"/></g></g><path d="m417.632 7.5h-323.274c-47.969 0-86.858 38.889-86.858 86.858v323.274c0 47.969 38.889 86.858 86.858 86.858h323.274c47.969 0 86.858-38.889 86.858-86.858v-323.274c.001-47.969-38.889-86.858-86.858-86.858zm46.859 410.132c0 25.839-21.02 46.859-46.859 46.859h-323.274c-25.839 0-46.859-21.02-46.859-46.859v-323.274c0-25.839 21.02-46.859 46.859-46.859h323.274c25.839 0 46.859 21.02 46.859 46.859z" fill="#d6f6b2"/><g fill="#b3e59f"><path d="m29.485 417.637v-323.274c0-47.969 38.889-86.858 86.858-86.858h-21.985c-47.969 0-86.858 38.889-86.858 86.858v323.274c0 47.969 38.889 86.858 86.858 86.858h21.985c-47.968 0-86.858-38.889-86.858-86.858z"/><path d="m417.632 464.496h21.985c25.839 0 46.859-21.02 46.859-46.859v-323.274c0-25.839-21.02-46.859-46.859-46.859h-21.985c25.839 0 46.859 21.02 46.859 46.859v323.274c0 25.839-21.019 46.859-46.859 46.859z"/></g></g><g><g><path d="m205.411 432.351c-12.87 0-24.834-6.759-31.484-17.886l-85.89-143.668c-10.387-17.367-4.705-39.952 12.667-50.345l13.922-8.322c3.556-2.126 8.161-.965 10.286 2.589 2.125 3.556.966 8.161-2.589 10.286l-13.92 8.32c-10.273 6.146-13.635 19.502-7.492 29.773l85.891 143.671c4.081 6.83 11.555 10.878 19.467 10.564l60.89-2.4c7.94-.312 15.056-4.926 18.572-12.039l126.154-254.478c2.583-5.201 2.984-11.089 1.133-16.582-1.852-5.494-5.735-9.939-10.935-12.518l-45.228-22.409c-10.719-5.319-23.773-.919-29.104 9.807l-89.507 180.593c-1.218 2.458-3.683 4.056-6.424 4.164-2.766.099-5.325-1.291-6.732-3.645l-43.59-72.9c-6.137-10.274-19.495-13.631-29.777-7.491l-3.632 2.176c-3.554 2.129-8.159.974-10.288-2.58-2.128-3.553-.973-8.16 2.58-10.288l3.64-2.18c17.392-10.387 39.976-4.704 50.353 12.668l36.535 61.101 83.407-168.286c9.011-18.136 31.083-25.569 49.203-16.578l45.226 22.408c8.792 4.359 15.356 11.875 18.488 21.166 3.132 9.293 2.454 19.251-1.91 28.04l-126.148 254.467c-5.948 12.035-17.991 19.844-31.425 20.373l-60.89 2.4c-.483.019-.967.029-1.449.029z"/></g><path d="m417.628 511.991h-323.265c-52.032 0-94.363-42.331-94.363-94.364v-323.264c0-52.032 42.331-94.363 94.363-94.363h323.265c52.032 0 94.363 42.331 94.363 94.363v323.265c-.001 52.032-42.332 94.363-94.363 94.363zm-323.265-496.991c-43.761 0-79.363 35.602-79.363 79.363v323.265c0 43.761 35.602 79.363 79.363 79.363h323.265c43.761 0 79.363-35.602 79.363-79.363v-323.265c-.001-43.761-35.603-79.363-79.363-79.363z"/><path d="m402.625 471.988h-308.26c-29.98 0-54.37-24.386-54.37-54.36v-323.26c0-29.98 24.39-54.37 54.37-54.37h323.26c29.98 0 54.37 24.39 54.37 54.37v323.26c0 23.42-14.942 44.15-37.183 51.583-3.928 1.315-8.177-.807-9.491-4.736-1.313-3.928.807-8.178 4.736-9.491 16.112-5.385 26.938-20.398 26.938-37.357v-323.259c0-21.709-17.661-39.37-39.37-39.37h-323.26c-21.709 0-39.37 17.661-39.37 39.37v323.26c0 21.704 17.661 39.36 39.37 39.36h308.26c4.142 0 7.5 3.358 7.5 7.5s-3.358 7.5-7.5 7.5z"/></g></g></svg>