<svg id="Capa_1" enable-background="new 0 0 508 508" height="512" viewBox="0 0 508 508" width="512" xmlns="http://www.w3.org/2000/svg"><g><path d="m478 64h-448c-11.046 0-20 8.954-20 20v360h488v-360c0-11.046-8.954-20-20-20z" fill="#fff"/><path d="m10 444v-180c0 16.568 13.431 30 30 30h82v150zm30-225h82v-75h-112v105c0-16.569 13.431-30 30-30z" fill="#c5d3de"/><path d="m386 314h72v90h-72z" fill="#ffee80"/><path d="m274 314h72v90h-72z" fill="#d5ea79"/><path d="m162 314h72v90h-72z" fill="#e6e6f9"/><path d="m386 184h72v90h-72z" fill="#eaf5bc"/><path d="m274 184h72v90h-72z" fill="#8481e2"/><path d="m162 184h72v90h-72z" fill="#fff2a0"/><path d="m10 144v-60c0-11.046 8.954-20 20-20h448c11.046 0 20 8.954 20 20v60z" fill="#80b6ff"/><path d="m264 444c0 5.51-4.49 10-10 10s-10-4.49-10-10 4.49-10 10-10 10 4.49 10 10zm112-170v-90c0-5.522 4.478-10 10-10h72c5.522 0 10 4.478 10 10v90c0 5.522-4.478 10-10 10h-72c-5.522 0-10-4.478-10-10zm20-10h52v-70h-52zm-20 50c0-5.522 4.478-10 10-10h72c5.522 0 10 4.478 10 10v90c0 5.522-4.478 10-10 10h-72c-5.522 0-10-4.478-10-10zm20 80h52v-70h-52zm-132-120v-90c0-5.522 4.478-10 10-10h72c5.522 0 10 4.478 10 10v90c0 5.522-4.478 10-10 10h-72c-5.522 0-10-4.478-10-10zm20-10h52v-70h-52zm62 150h-72c-5.522 0-10-4.478-10-10v-90c0-5.522 4.478-10 10-10h72c5.522 0 10 4.478 10 10v90c0 5.522-4.478 10-10 10zm-10-90h-52v70h52zm-184-50v-90c0-5.522 4.478-10 10-10h72c5.522 0 10 4.478 10 10v90c0 5.522-4.478 10-10 10h-72c-5.522 0-10-4.478-10-10zm20-10h52v-70h-52zm72 140c0 5.522-4.478 10-10 10h-72c-5.522 0-10-4.478-10-10v-90c0-5.522 4.478-10 10-10h72c5.522 0 10 4.478 10 10zm-20-80h-52v70h52zm-164-220c0 5.523-4.477 10-10 10s-10-4.477-10-10 4.477-10 10-10 10 4.477 10 10zm45 0c0 5.523-4.477 10-10 10s-10-4.477-10-10 4.477-10 10-10 10 4.477 10 10zm45 0c0 5.523-4.477 10-10 10s-10-4.477-10-10 4.477-10 10-10 10 4.477 10 10zm-129.985 160.771c.408 10.823 9.645 19.229 20.476 19.229h81.509c5.523 0 10 4.477 10 10v140h76.642c5.318 0 9.973 4 10.335 9.306.396 5.822-4.238 10.694-9.977 10.694h-199c-5.523 0-10-4.477-10-10v-360c0-16.569 13.431-30 30-30h448c16.569 0 30 13.431 30 30v360c0 5.523-4.477 10-10 10h-199c-5.739 0-10.373-4.872-9.976-10.694.361-5.306 5.016-9.306 10.334-9.306h188.642v-280h-356v65c0 5.523-4.477 10-10 10h-82c-11.284 0-20.415 9.393-19.985 20.771zm-.015-130.771h468v-50c0-5.514-4.486-10-10-10h-448c-5.514 0-10 4.486-10 10zm92 300v-55h-92v55zm0-130h-72c-7.283 0-14.112-1.966-20-5.382v60.382h92zm0-150h-92v60.382c5.888-3.416 12.717-5.382 20-5.382h72z"/></g></svg>