<svg id="Capa_1" enable-background="new 0 0 512 512" height="512" viewBox="0 0 512 512" width="512" xmlns="http://www.w3.org/2000/svg"><g><g><g><path d="m7.5 344.894v-327.292c0-5.579 4.523-10.102 10.102-10.102h262.642c5.579 0 10.102 4.523 10.102 10.102v327.293c0 5.579-4.523 10.102-10.102 10.102h-262.642c-5.579-.001-10.102-4.524-10.102-10.103z" fill="#e4f6ff"/></g><g><path d="m270.142 7.5v347.496h10.102c5.579 0 10.102-4.523 10.102-10.102v-327.292c0-5.579-4.523-10.102-10.102-10.102z" fill="#b9e4ef"/></g><g><path d="m231.756 135.004c-17.701 0-32.102 14.4-32.102 32.102v187.89h80.59c5.579 0 10.102-4.523 10.102-10.102v-209.89z" fill="#b9e4ef"/></g><g><path d="m72.15 7.5h153.545v218.195h-153.545z" fill="#80b4fb" transform="matrix(0 1 -1 0 265.52 -32.325)"/></g><g><path d="m258.02 193.37v-58.366h-26.264c-17.701 0-32.102 14.4-32.102 32.102v26.264z" fill="#61a2f9"/></g><g><path d="m39.825 225.695h218.195v32.325h-218.195z" fill="#e278b1"/></g><g><path d="m199.654 225.695h58.366v32.325h-58.366z" fill="#dd5ca2"/></g><g><path d="m178.217 96.394-77.782 96.976h157.585z" fill="#66b49d"/></g><g><path d="m199.654 167.105v26.264h58.366l-43.75-53.165c-8.789 5.734-14.616 15.647-14.616 26.901z" fill="#57988b"/></g><g><path d="m99.425 116.598-59.6 76.772h117.179z" fill="#a2f4c1"/></g></g><g><g><path d="m221.654 494.398v-327.292c0-5.579 4.523-10.102 10.102-10.102h262.642c5.579 0 10.102 4.523 10.102 10.102v327.293c0 5.579-4.523 10.102-10.102 10.102h-262.642c-5.579-.001-10.102-4.524-10.102-10.103z" fill="#e4f6ff"/></g><g><path d="m484.297 157.004v347.496h10.102c5.579 0 10.102-4.523 10.102-10.102v-327.292c0-5.579-4.523-10.102-10.102-10.102z" fill="#b9e4ef"/></g><g><path d="m286.305 157.004h153.545v218.195h-153.545z" fill="#80b4fb" transform="matrix(0 1 -1 0 629.179 -96.976)"/></g><g><path d="m253.98 375.199h218.195v32.325h-218.195z" fill="#e278b1"/></g><g><path d="m392.372 245.898-77.783 96.976h157.586z" fill="#66b49d"/></g><g><path d="m313.579 266.102-59.599 76.772h117.179z" fill="#a2f4c1"/></g></g><g><path d="m441.87 76.191v-52.528c0-8.927-7.236-16.163-16.163-16.163h-71.722v32.325h55.559v36.366h-21.213l37.376 48.488 37.376-48.488z" fill="#ffe07d"/></g><g><path d="m70.13 435.809v52.528c0 8.927 7.236 16.163 16.163 16.163h71.722v-32.325h-55.559v-36.366h21.213l-37.376-48.488-37.376 48.488z" fill="#ffe07d"/></g><g><path d="m176.626 290.346c0-4.143-3.358-7.5-7.5-7.5h-129.301c-4.142 0-7.5 3.357-7.5 7.5s3.358 7.5 7.5 7.5h129.301c4.142 0 7.5-3.358 7.5-7.5z"/><path d="m39.825 315.171c-4.142 0-7.5 3.357-7.5 7.5s3.358 7.5 7.5 7.5h78.792c4.142 0 7.5-3.357 7.5-7.5s-3.358-7.5-7.5-7.5z"/><path d="m246.479 407.524c0 4.143 3.358 7.5 7.5 7.5h218.195c4.143 0 7.5-3.357 7.5-7.5v-32.325c0-4.143-3.357-7.5-7.5-7.5h-218.195c-4.142 0-7.5 3.357-7.5 7.5zm15-24.825h203.195v17.325h-203.195z"/><path d="m253.979 447.35h129.301c4.143 0 7.5-3.357 7.5-7.5s-3.357-7.5-7.5-7.5h-129.301c-4.142 0-7.5 3.357-7.5 7.5s3.358 7.5 7.5 7.5z"/><path d="m253.979 479.675h78.793c4.143 0 7.5-3.357 7.5-7.5s-3.357-7.5-7.5-7.5h-78.793c-4.142 0-7.5 3.357-7.5 7.5s3.358 7.5 7.5 7.5z"/><path d="m494.4 149.5h-196.55v-54.86c0-4.143-3.357-7.5-7.5-7.5s-7.5 3.357-7.5 7.5v54.86h-17.329v-109.675c0-4.143-3.357-7.5-7.5-7.5h-218.196c-4.142 0-7.5 3.357-7.5 7.5v153.545c-.068 4.029 3.471 7.565 7.5 7.5h174.325v17.325h-174.325c-4.142 0-7.5 3.357-7.5 7.5v32.325c0 4.143 3.358 7.5 7.5 7.5h174.325v18.3c0 4.143 3.358 7.5 7.5 7.5s7.5-3.357 7.5-7.5v-116.71c0-1.439 1.171-2.61 2.61-2.61h262.64c1.434 0 2.6 1.171 2.6 2.61v182.39c0 4.143 3.357 7.5 7.5 7.5s7.5-3.357 7.5-7.5v-182.39c0-9.71-7.896-17.61-17.6-17.61zm-243.879-102.175v102.175h-18.761c-.042 0-.082.006-.124.006l-47.628-57.877c-1.425-1.732-3.55-2.734-5.791-2.734-.016 0-.031 0-.047 0-2.259.015-4.391 1.046-5.804 2.808l-42.499 52.986-24.443-32.591c-1.403-1.871-3.599-2.98-5.938-3-2.363-.013-4.553 1.055-5.987 2.9l-46.175 59.48v-124.153zm-108.517 138.545h-86.861l44.179-56.909zm18.75 0-21.595-28.793 39.133-48.789 39.555 48.067c-2.308 2.979-3.697 6.704-3.697 10.755v18.76zm-113.429 64.651v-17.325h166.825v17.325z"/><path d="m504.5 377c-4.143 0-7.5 3.357-7.5 7.5v109.9c0 1.434-1.166 2.6-2.6 2.6h-262.64c-1.439 0-2.61-1.166-2.61-2.6v-175.58c0-4.143-3.358-7.5-7.5-7.5s-7.5 3.357-7.5 7.5v28.68h-196.55c-1.434 0-2.6-1.171-2.6-2.61v-327.29c0-1.434 1.167-2.6 2.6-2.6h262.64c1.438 0 2.609 1.166 2.609 2.6v42.04c0 4.143 3.357 7.5 7.5 7.5s7.5-3.357 7.5-7.5v-42.04c0-9.704-7.899-17.6-17.609-17.6h-262.64c-9.704 0-17.6 7.896-17.6 17.6v327.29c0 9.71 7.896 17.61 17.6 17.61h196.55v131.9c0 9.704 7.9 17.6 17.61 17.6h262.64c9.704 0 17.6-7.896 17.6-17.6v-109.9c0-4.143-3.357-7.5-7.5-7.5z"/><path d="m479.675 189.329c0-4.143-3.357-7.5-7.5-7.5h-218.196c-4.142 0-7.5 3.357-7.5 7.5v153.545c-.068 4.03 3.471 7.564 7.5 7.5h218.195c4.031.066 7.571-3.472 7.5-7.5v-153.545zm-15 7.5v125.128l-66.512-80.824c-1.425-1.731-3.55-2.734-5.791-2.734-.016 0-.031 0-.047 0-2.259.015-4.391 1.046-5.804 2.808l-42.499 52.987-24.443-32.591c-1.403-1.871-3.599-2.98-5.938-3-2.335-.017-4.553 1.055-5.987 2.9l-46.175 59.48v-124.154zm-89.767 138.545-21.594-28.792 39.132-48.79 63.844 77.582zm-18.75 0h-86.861l44.179-56.909z"/><path d="m353.985 47.325h48.06v21.366h-13.714c-2.858 0-5.469 1.625-6.73 4.19s-.955 5.624.79 7.889l37.376 48.487c1.42 1.842 3.614 2.921 5.94 2.921s4.521-1.079 5.94-2.921l37.376-48.487c1.745-2.265 2.052-5.323.79-7.889s-3.872-4.19-6.73-4.19h-13.713v-45.028c0-13.048-10.615-23.663-23.663-23.663h-71.722c-4.143 0-7.5 3.357-7.5 7.5v32.325c0 4.143 3.358 7.5 7.5 7.5zm7.5-32.325h64.222c4.776 0 8.663 3.887 8.663 8.663v52.528c0 4.143 3.357 7.5 7.5 7.5h5.962l-22.125 28.702-22.125-28.702h5.963c4.143 0 7.5-3.357 7.5-7.5v-36.366c0-4.143-3.357-7.5-7.5-7.5h-48.06z"/><path d="m158.014 464.675h-48.059v-21.366h13.713c2.858 0 5.469-1.625 6.73-4.19 1.262-2.565.955-5.624-.79-7.889l-37.376-48.487c-1.42-1.842-3.614-2.921-5.94-2.921s-4.52 1.079-5.94 2.921l-37.376 48.487c-1.745 2.265-2.052 5.323-.79 7.889 1.261 2.565 3.872 4.19 6.73 4.19h13.714v45.028c0 13.048 10.615 23.663 23.662 23.663h71.722c4.142 0 7.5-3.357 7.5-7.5v-32.325c0-4.143-3.358-7.5-7.5-7.5zm-7.5 32.325h-64.222c-4.776 0-8.663-3.887-8.663-8.663v-52.528c0-4.143-3.358-7.5-7.5-7.5h-5.962l22.125-28.702 22.125 28.702h-5.962c-4.142 0-7.5 3.357-7.5 7.5v36.366c0 4.143 3.358 7.5 7.5 7.5h48.059z"/></g></g></svg>