<svg id="_x31__x2C_5" height="512" viewBox="0 0 24 24" width="512" xmlns="http://www.w3.org/2000/svg"><path d="m21.25.75h-7c-.86 0-1.63.36-2.18.94l-10.77 11.19c-.34.35-.55.84-.55 1.37 0 .55.22 1.05.59 1.41l7 7c.36.37.86.59 1.41.59.53 0 1.02-.21 1.37-.55l11.19-10.77c.58-.55.94-1.32.94-2.18v-7c0-1.1-.9-2-2-2z" fill="#cfd8dc"/><path d="m19 6.375c-.758 0-1.375-.617-1.375-1.375s.617-1.375 1.375-1.375 1.375.617 1.375 1.375-.617 1.375-1.375 1.375z" fill="#90a4ae"/><path d="m17.5 23.25c-3.17 0-5.75-2.58-5.75-5.75s2.58-5.75 5.75-5.75 5.75 2.58 5.75 5.75-2.58 5.75-5.75 5.75z" fill="#ffc107"/><path d="m17.5 21.5c-.414 0-.75-.336-.75-.75v-.929c0-.414.336-.75.75-.75s.75.336.75.75v.929c0 .414-.336.75-.75.75z"/><path d="m17.708 20.571h-1.458c-.414 0-.75-.336-.75-.75s.336-.75.75-.75h1.458c.138 0 .292-.168.292-.411s-.154-.411-.292-.411h-.417c-.988 0-1.792-.857-1.792-1.911s.804-1.911 1.792-1.911h1.458c.414 0 .75.336.75.75s-.336.75-.75.75h-1.458c-.138 0-.292.168-.292.411s.154.411.292.411h.417c.988 0 1.792.857 1.792 1.911s-.804 1.911-1.792 1.911z"/><path d="m17.5 15.929c-.414 0-.75-.336-.75-.75v-.929c0-.414.336-.75.75-.75s.75.336.75.75v.929c0 .414-.336.75-.75.75z"/><path d="m17.5 24c-3.584 0-6.5-2.916-6.5-6.5s2.916-6.5 6.5-6.5 6.5 2.916 6.5 6.5-2.916 6.5-6.5 6.5zm0-11.5c-2.757 0-5 2.243-5 5s2.243 5 5 5 5-2.243 5-5-2.243-5-5-5z"/><path d="m9.75 24c-.743 0-1.434-.29-1.947-.816l-6.993-6.994c-.52-.506-.81-1.197-.81-1.94 0-.704.278-1.394.762-1.893l10.767-11.187c.715-.753 1.682-1.17 2.721-1.17h7c1.517 0 2.75 1.233 2.75 2.75v7c0 .347-.042.661-.13.96-.116.398-.533.625-.93.509-.398-.116-.625-.533-.509-.93.047-.161.07-.337.07-.54v-7c0-.689-.561-1.25-1.25-1.25h-7c-.623 0-1.204.251-1.636.706l-10.775 11.195c-.217.224-.34.533-.34.85 0 .334.129.645.363.873l7.007 7.007c.339.348.887.462 1.315.286.385-.157.821.026.979.409.157.383-.026.821-.409.979-.313.128-.661.196-1.005.196z"/><path d="m19 7c-1.103 0-2-.897-2-2s.897-2 2-2 2 .897 2 2-.897 2-2 2zm0-2.5c-.276 0-.5.224-.5.5s.224.5.5.5.5-.224.5-.5-.224-.5-.5-.5z"/></svg>