<?xml version="1.0" encoding="UTF-8" standalone="no"?>
<svg
   xmlns:dc="http://purl.org/dc/elements/1.1/"
   xmlns:cc="http://creativecommons.org/ns#"
   xmlns:rdf="http://www.w3.org/1999/02/22-rdf-syntax-ns#"
   xmlns:svg="http://www.w3.org/2000/svg"
   xmlns="http://www.w3.org/2000/svg"
   xmlns:sodipodi="http://sodipodi.sourceforge.net/DTD/sodipodi-0.dtd"
   xmlns:inkscape="http://www.inkscape.org/namespaces/inkscape"
   id="Capa_1"
   enable-background="new 0 0 512 512"
   height="512"
   viewBox="0 0 512 512"
   width="512"
   version="1.1"
   sodipodi:docname="mystery.svg"
   inkscape:version="0.92.4 (5da689c313, 2019-01-14)">
  <metadata
     id="metadata63">
    <rdf:RDF>
      <cc:Work
         rdf:about="">
        <dc:format>image/svg+xml</dc:format>
        <dc:type
           rdf:resource="http://purl.org/dc/dcmitype/StillImage" />
        <dc:title></dc:title>
      </cc:Work>
    </rdf:RDF>
  </metadata>
  <defs
     id="defs61" />
  <sodipodi:namedview
     pagecolor="#ffffff"
     bordercolor="#666666"
     borderopacity="1"
     objecttolerance="10"
     gridtolerance="10"
     guidetolerance="10"
     inkscape:pageopacity="0"
     inkscape:pageshadow="2"
     inkscape:window-width="1856"
     inkscape:window-height="1057"
     id="namedview59"
     showgrid="false"
     inkscape:zoom="1.3037281"
     inkscape:cx="466.02201"
     inkscape:cy="251.10466"
     inkscape:window-x="-8"
     inkscape:window-y="-8"
     inkscape:window-maximized="1"
     inkscape:current-layer="Capa_1" />
  <path
     id="path46"
     d="m 228.31737,1.438477 c -6.35,0 -11.5156,5.15996 -11.5156,11.50196 v 33.195306 l 0.035,16.51367 -0.035,-1.51367 V 223.79394 c -0.2793,0.84813 -0.7274,1.40079 -1.4492,1.66993 l 1.4492,0.47656 v 1.25976 c -1.0736,-0.53412 -2.1563,-1.05145 -3.2441,-1.56054 -1.7284,-0.10342 -4.2278,-0.78097 -7.92,-1.9375 l -33.6992,-10.55664 c -7.152,-1.047 -14.4633,-1.59766 -21.9023,-1.59766 -82.73099,0 -150.03714,67.06786 -150.03714,149.50586 0,82.438 67.30615,149.50781 150.03714,149.50781 47.667,0 90.2081,-22.27668 117.7051,-56.92968 l 0.3906,0.1914 c 0,0 8.5616,-11.62468 10.0957,-15.19141 5.678,-9.286 10.3697,-19.23131 13.9277,-29.69531 h 174.9805 33.3476 c 6.35,0 11.5176,-5.16095 11.5176,-11.50195 V 189.69824 c 0,-4.142 -3.358,-7.5 -7.5,-7.5 -4.142,0 -7.5,3.358 -7.5,7.5 v 204.23828 h -200.6211 c 2.393,-10.584 3.6641,-21.58781 3.6641,-32.88281 0,-52.397 -27.1912,-98.57725 -68.2422,-125.28125 V 16.438477 h 265.1973 V 154.77441 c 0,4.142 3.3579,7.5 7.4999,7.5 4.142,0 7.5,-3.358 7.5,-7.5 V 12.940437 c 0,-6.342 -5.1656,-11.50196 -11.5156,-11.50196 z m -14.7597,224.201173 c 0.7206,0.0431 1.3268,-10e-4 1.7949,-0.17578 l -8.8789,-2.91602 c 2.392,0.97237 4.7548,2.00177 7.084,3.0918 z m -7.084,-3.0918 c -6.3111,-2.56547 -12.831,-4.722 -19.5352,-6.41797 z m -56.4375,4 c 74.443,0 135.0078,60.33886 135.0078,134.50586 0,74.167 -60.5638,134.50781 -135.0078,134.50781 -74.45999,0 -135.03714,-60.33981 -135.03714,-134.50781 0,-74.167 60.57715,-134.50586 135.03714,-134.50586 z m 292.8437,235.29102 c -0.1057,6.9e-4 -0.2135,0.002 -0.3242,0.002 0,0.0129 -0.01,0.0262 -0.014,0.0391 -4e-4,9.5e-4 -0.001,10e-4 0,0.002 0.018,-0.002 0.035,-0.001 0.053,-0.004 z"
     inkscape:connector-curvature="0" />
  <g
     id="g16"
     transform="translate(1e-5,-4.98e-4)">
    <path
       style="clip-rule:evenodd;fill:#ffbc8a;fill-rule:evenodd"
       inkscape:connector-curvature="0"
       id="path14"
       d="M 150.037,219.048 C 71.296,219.048 7.5,282.635 7.5,361.054 c 0,78.419 63.796,142.006 142.537,142.006 46.671,0 88.121,-22.377 114.11,-56.928 10.011,-13.289 17.727,-28.378 22.575,-44.697 3.786,-12.803 5.823,-26.349 5.823,-40.381 0,-51.327 -27.308,-96.281 -68.242,-121.23 -13.625,-8.288 -28.743,-14.375 -44.864,-17.747 -9.495,-1.972 -19.334,-3.029 -29.402,-3.029 z M 47.545,361.054 c 0,-56.385 45.868,-102.111 102.492,-102.111 56.596,0 102.464,45.726 102.464,102.111 0,56.385 -45.868,102.111 -102.464,102.111 -56.625,0 -102.492,-45.725 -102.492,-102.111 z" />
  </g>
  <path
     d="m 500.48401,8.938502 h -272.165 c -2.209,0 -4.016,1.8 -4.016,4.001 v 40.696 186.188998 c -26.303,65.751 28.197,156.175 62.419,161.611 h 172.914 40.848 c 2.209,0 4.016,-1.8 4.016,-4.001 V 12.939502 c 0,-2.2 -1.807,-4.001 -4.016,-4.001 z"
     id="path10"
     inkscape:connector-curvature="0"
     style="clip-rule:evenodd;fill:#5d78ff;fill-opacity:0.39215687;fill-rule:evenodd" />
  <g
     id="g20"
     transform="translate(-0.00101,-0.001497)"
     style="fill:#39c3cc;fill-opacity:1;stroke:none;stroke-opacity:1">
    <path
       style="clip-rule:evenodd;fill:#39c3cc;fill-opacity:1;fill-rule:evenodd;stroke:none;stroke-opacity:1"
       inkscape:connector-curvature="0"
       id="path18"
       d="m 150.037,258.944 c -56.625,0 -102.492,45.726 -102.492,102.111 0,56.385 45.868,102.111 102.492,102.111 56.596,0 102.464,-45.726 102.464,-102.111 0,-56.385 -45.868,-102.111 -102.464,-102.111 z" />
  </g>
  <g
     id="g24"
     transform="translate(1e-5,-4.98e-4)"
     style="fill:#39b1cc;fill-opacity:1">
    <path
       style="clip-rule:evenodd;fill:#39b1cc;fill-opacity:1;fill-rule:evenodd"
       inkscape:connector-curvature="0"
       id="path22"
       d="m 252.5,361.054 c 0,-44.382 -28.398,-82.135 -68.099,-96.224 23.063,25.235 37.119,58.786 37.119,95.595 0,14.032 -2.037,27.578 -5.823,40.381 -4.848,16.318 -12.564,31.408 -22.575,44.697 -3.241,4.315 -6.712,8.431 -10.441,12.346 40.589,-13.574 69.819,-51.784 69.819,-96.795 z" />
  </g>
  <g
     id="g28"
     transform="translate(1e-5,-4.98e-4)">
    <path
       style="clip-rule:evenodd;fill:#f5a96c;fill-rule:evenodd"
       inkscape:connector-curvature="0"
       id="path26"
       d="m 292.545,361.054 c 0,-51.327 -27.308,-96.281 -68.242,-121.23 -13.625,-8.288 -28.743,-14.375 -44.864,-17.747 -9.495,-1.972 -19.334,-3.029 -29.402,-3.029 -11.847,0 -23.321,1.429 -34.308,4.144 13.396,3.544 26.017,8.974 37.549,16.004 11.56,7.059 22.03,15.718 31.123,25.635 39.7,14.089 68.099,51.841 68.099,96.224 0,45.011 -29.23,83.22 -69.82,96.795 -18.445,19.519 -42.397,33.808 -69.39,40.439 11.732,3.115 24.038,4.773 36.746,4.773 46.671,0 88.121,-22.377 114.11,-56.928 10.011,-13.289 17.727,-28.378 22.575,-44.697 3.787,-12.804 5.824,-26.351 5.824,-40.383 z" />
  </g>
  <g
     id="g32"
     transform="translate(1e-5,-4.98e-4)"
     style="fill:#5c78ff;fill-opacity:0.39215687">
    <path
       style="clip-rule:evenodd;fill:#5c78ff;fill-opacity:0.39215687;fill-rule:evenodd"
       inkscape:connector-curvature="0"
       id="path30"
       d="M 504.5,397.435 V 12.94 c 0,-2.201 -1.807,-4.001 -4.016,-4.001 H 468.27 c 2.123,0 4.016,1.8 4.016,4.001 v 350.686 33.808 c 0,2.201 -1.807,4.001 -4.016,4.001 h 32.214 c 2.209,10e-4 4.016,-1.8 4.016,-4 z" />
  </g>
  <path
     d="m 40.04401,361.0535 c 0,60.439 49.342,109.611 109.99196,109.611 60.634,0 109.964,-49.171 109.964,-109.611 0,-60.44 -49.33,-109.611 -109.964,-109.611 -60.64896,0 -109.99196,49.172 -109.99196,109.611 z m 204.95596,0 c 0,52.168 -42.601,94.611 -94.964,94.611 -52.37896,0 -94.99196,-42.442 -94.99196,-94.611 0,-52.169 42.613,-94.611 94.99196,-94.611 52.364,0 94.964,42.443 94.964,94.611 z"
     id="path42"
     inkscape:connector-curvature="0" />
  <g
     transform="matrix(0.53766181,0,0,0.53766181,-0.52352,253.52114)"
     id="g948"
     style="clip-rule:evenodd;fill-rule:evenodd;stroke-linejoin:round;stroke-miterlimit:2">
    <g
       transform="matrix(8.4375,0,0,8.4375,146.266,65)"
       id="g931">
      <path
         style="fill:#633001"
         inkscape:connector-curvature="0"
         d="M 5.7,5 C 5.2,2.4 7.2,0 9.8,0 12.1,0 14,1.9 14,4.2 v 5.2 c 0.6,0 1.2,-0.1 1.8,-0.1 0.6,0 1.1,0 1.7,0.1 V 4.2 c 0,-2.3 1.9,-4.2 4.2,-4.2 2.6,0 4.6,2.4 4.2,5 l -1.1,6.1 c 3.9,1.7 6.9,4.7 6.9,8.4 v 2.3 c 0,3.1 -2,5.7 -4.9,7.4 C 23.9,31 20.1,32 15.8,32 11.5,32 7.7,31 4.8,29.2 2,27.5 0,24.9 0,21.8 v -2.3 c 0,-3.7 2.9,-6.7 6.8,-8.4 z m 17.6,6.9 1.3,-7.2 c 0.3,-1.8 -1,-3.5 -2.9,-3.5 -1.6,0 -2.9,1.3 -2.9,2.9 v 6.6 c -0.4,-0.1 -0.9,-0.1 -1.3,-0.1 -0.6,0 -1.1,-0.1 -1.7,-0.1 -0.6,0 -1.2,0 -1.8,0.1 -0.4,0 -0.9,0.1 -1.3,0.1 V 4.2 C 12.7,2.6 11.4,1.3 9.8,1.3 8,1.3 6.6,3 7,4.8 L 8.3,12 c -4.2,1.6 -7,4.4 -7,7.6 v 2.3 c 0,4.9 6.5,8.9 14.5,8.9 8,0 14.5,-4 14.5,-8.9 v -2.3 c 0.1,-3.3 -2.7,-6.1 -7,-7.7 z"
         id="path919" />
      <path
         style="fill:#fedc90;fill-rule:nonzero"
         inkscape:connector-curvature="0"
         d="m 30.4,21.8 c 0,4.9 -6.5,8.9 -14.5,8.9 -8,0 -14.5,-4 -14.5,-8.9 v -2.3 h 29.1 v 2.3 z"
         id="path921" />
      <path
         style="fill:#d1884f"
         inkscape:connector-curvature="0"
         d="M 7,4.8 C 6.6,3 8,1.3 9.8,1.3 c 1.6,0 2.9,1.3 2.9,2.9 v 6.6 c 1,-0.1 2,-0.2 3.1,-0.2 1,0 2,0.1 3,0.2 V 4.2 c 0,-1.6 1.3,-2.9 2.9,-2.9 1.8,0 3.2,1.7 2.9,3.5 L 23.3,12 c 4.2,1.6 7.1,4.4 7.1,7.6 0,4.9 -6.5,8.9 -14.5,8.9 -8,0 -14.5,-4 -14.5,-8.9 0,-3.2 2.8,-6 7,-7.6 z"
         id="path923" />
      <g
         style="fill:#633001;fill-rule:nonzero"
         id="g929">
        <path
           inkscape:connector-curvature="0"
           d="m 11.8,18.9 c 0,1.3 -0.7,2.4 -1.6,2.4 -0.9,0 -1.6,-1.1 -1.6,-2.4 0,-1.3 0.7,-2.4 1.6,-2.4 0.9,0 1.6,1.1 1.6,2.4 z"
           id="path925" />
        <path
           inkscape:connector-curvature="0"
           d="m 22.9,18.9 c 0,1.3 -0.7,2.4 -1.6,2.4 -0.9,0 -1.6,-1.1 -1.6,-2.4 0,-1.3 0.7,-2.4 1.6,-2.4 0.9,0 1.6,1.1 1.6,2.4 z"
           id="path927" />
      </g>
    </g>
  </g>
  <g
     id="g1727"
     transform="matrix(0.3288478,0,0,0.3288478,276.74567,121.00196)">
    <g
       id="g1663">
	<g
   id="g1661">
		<g
   id="g1659">
			<path
   id="path1645"
   d="m 373.75,84.965 c -1.712,-1.721 -4.041,-2.685 -6.469,-2.679 h -213.42 c -2.427,-0.007 -4.757,0.958 -6.469,2.679 l -35,35 c -1.721,1.712 -2.685,4.041 -2.679,6.469 v 56.424 c 0.007,5.047 4.096,9.136 9.143,9.143 h 36.571 c 5.047,-0.007 9.136,-4.096 9.143,-9.143 v -19.853 c -0.021,-7.28 2.873,-14.265 8.036,-19.397 l 7.571,-7.571 c 5.132,-5.163 12.118,-8.056 19.397,-8.036 h 112.848 c 7.28,-0.021 14.265,2.873 19.397,8.036 l 7.571,7.571 c 5.163,5.133 8.056,12.118 8.036,19.397 V 192 c -0.017,15.142 -12.287,27.412 -27.429,27.429 h -47.281 c -2.427,-0.007 -4.757,0.958 -6.469,2.679 l -53.285,53.285 c -1.721,1.712 -2.685,4.041 -2.679,6.469 V 320 h 82.286 c 5.047,-0.007 9.136,-4.096 9.143,-9.143 v -28.996 c -0.021,-7.28 2.873,-14.265 8.036,-19.397 l 7.571,-7.571 c 5.133,-5.163 12.118,-8.056 19.398,-8.036 h 30.563 c 2.427,0.007 4.757,-0.958 6.469,-2.679 l 35,-35 c 1.721,-1.712 2.685,-4.041 2.679,-6.469 v -76.277 c 0.007,-2.427 -0.958,-4.757 -2.679,-6.469 z"
   inkscape:connector-curvature="0" />

			<path
   id="path1647"
   d="m 292.571,384 h -73.143 c -5.049,0 -9.143,4.093 -9.143,9.143 v 36.571 c 0,5.049 4.093,9.143 9.143,9.143 h 73.143 c 5.049,0 9.143,-4.093 9.143,-9.143 v -36.571 c 0,-5.05 -4.093,-9.143 -9.143,-9.143 z"
   inkscape:connector-curvature="0" />

			<circle
   id="circle1649"
   r="13.714"
   cy="59.429001"
   cx="59.429001" />

			<circle
   id="circle1651"
   r="13.714"
   cy="452.57101"
   cx="452.57101" />

			<path
   id="path1653"
   d="M 466.286,0 H 45.714 C 20.479,0.03 0.03,20.479 0,45.714 V 466.285 C 0.03,491.521 20.479,511.97 45.714,512 h 420.571 c 25.235,-0.03 45.685,-20.479 45.714,-45.714 V 45.714 C 511.97,20.479 491.521,0.03 466.286,0 Z M 59.429,27.429 c 17.673,0 32,14.327 32,32 0,17.673 -14.327,32 -32,32 -17.673,0 -32,-14.327 -32,-32 0.021,-17.665 14.335,-31.979 32,-32 z m 0,457.142 c -17.673,0 -32,-14.327 -32,-32 0,-17.673 14.327,-32 32,-32 17.673,0 32,14.327 32,32 -0.022,17.665 -14.336,31.979 -32,32 z M 320,429.714 c -0.017,15.142 -12.287,27.412 -27.429,27.429 h -73.143 c -15.142,-0.017 -27.412,-12.287 -27.429,-27.429 v -36.571 c 0.017,-15.142 12.287,-27.412 27.429,-27.429 h 73.143 c 15.141,0.017 27.412,12.287 27.429,27.429 z m 47.281,-164.571 h -30.563 c -2.427,-0.007 -4.757,0.958 -6.469,2.679 l -7.571,7.571 c -1.721,1.712 -2.685,4.041 -2.679,6.469 v 28.995 c -0.017,15.142 -12.287,27.412 -27.429,27.429 h -89.714 c -0.29,0 -0.576,-0.013 -0.857,-0.04 -2.555,0.21 -5.083,-0.651 -6.979,-2.377 -1.896,-1.726 -2.99,-4.162 -3.021,-6.726 v -47.281 c -0.021,-7.28 2.873,-14.265 8.036,-19.397 l 53.285,-53.286 c 5.133,-5.163 12.118,-8.056 19.398,-8.036 H 320 c 5.047,-0.007 9.136,-4.096 9.143,-9.143 v -28.996 c 0.007,-2.427 -0.958,-4.757 -2.679,-6.469 l -7.571,-7.571 c -1.712,-1.721 -4.041,-2.685 -6.469,-2.679 H 199.576 c -2.427,-0.007 -4.757,0.958 -6.469,2.679 l -7.571,7.571 c -1.721,1.712 -2.685,4.041 -2.679,6.469 v 19.852 c -0.017,15.141 -12.287,27.412 -27.429,27.429 H 118.857 C 103.715,210.268 91.445,197.998 91.428,182.856 v -56.424 c -0.021,-7.28 2.873,-14.265 8.036,-19.397 l 35,-35 c 5.133,-5.163 12.118,-8.056 19.398,-8.036 h 213.42 c 7.28,-0.021 14.265,2.873 19.397,8.036 l 35,35 c 5.163,5.133 8.056,12.118 8.036,19.398 v 76.277 c 0.021,7.28 -2.873,14.265 -8.036,19.397 l -35,35 c -5.133,5.163 -12.118,8.057 -19.398,8.036 z m 85.29,219.428 c -17.673,0 -32,-14.327 -32,-32 0,-17.673 14.327,-32 32,-32 17.673,0 32,14.327 32,32 -0.021,17.665 -14.335,31.979 -32,32 z m 0,-393.142 c -17.673,0 -32,-14.327 -32,-32 0.021,-17.664 14.336,-31.979 32,-32 17.673,0 32,14.327 32,32 0,17.673 -14.326,32 -32,32 z"
   inkscape:connector-curvature="0" />

			<circle
   id="circle1655"
   r="13.714"
   cy="452.57101"
   cx="59.429001" />

			<circle
   id="circle1657"
   r="13.714"
   cy="59.429001"
   cx="452.57101" />

		</g>

	</g>

</g>
    <g
       id="g1665">
</g>
    <g
       id="g1667">
</g>
    <g
       id="g1669">
</g>
    <g
       id="g1671">
</g>
    <g
       id="g1673">
</g>
    <g
       id="g1675">
</g>
    <g
       id="g1677">
</g>
    <g
       id="g1679">
</g>
    <g
       id="g1681">
</g>
    <g
       id="g1683">
</g>
    <g
       id="g1685">
</g>
    <g
       id="g1687">
</g>
    <g
       id="g1689">
</g>
    <g
       id="g1691">
</g>
    <g
       id="g1693">
</g>
  </g>
</svg>
