<?xml version="1.0" encoding="UTF-8" standalone="no"?>
<svg
   xmlns:dc="http://purl.org/dc/elements/1.1/"
   xmlns:cc="http://creativecommons.org/ns#"
   xmlns:rdf="http://www.w3.org/1999/02/22-rdf-syntax-ns#"
   xmlns:svg="http://www.w3.org/2000/svg"
   xmlns="http://www.w3.org/2000/svg"
   xmlns:sodipodi="http://sodipodi.sourceforge.net/DTD/sodipodi-0.dtd"
   xmlns:inkscape="http://www.inkscape.org/namespaces/inkscape"
   id="Capa_1"
   enable-background="new 0 0 512 512"
   height="512"
   viewBox="0 0 512 512"
   width="512"
   version="1.1"
   sodipodi:docname="random card.svg"
   inkscape:version="0.92.4 (5da689c313, 2019-01-14)">
  <metadata
     id="metadata63">
    <rdf:RDF>
      <cc:Work
         rdf:about="">
        <dc:format>image/svg+xml</dc:format>
        <dc:type
           rdf:resource="http://purl.org/dc/dcmitype/StillImage" />
      </cc:Work>
    </rdf:RDF>
  </metadata>
  <defs
     id="defs61" />
  <sodipodi:namedview
     pagecolor="#ffffff"
     bordercolor="#666666"
     borderopacity="1"
     objecttolerance="10"
     gridtolerance="10"
     guidetolerance="10"
     inkscape:pageopacity="0"
     inkscape:pageshadow="2"
     inkscape:window-width="1856"
     inkscape:window-height="1057"
     id="namedview59"
     showgrid="false"
     inkscape:zoom="1.3037281"
     inkscape:cx="586.90945"
     inkscape:cy="473.78972"
     inkscape:window-x="-8"
     inkscape:window-y="-8"
     inkscape:window-maximized="1"
     inkscape:current-layer="Capa_1" />
  <g
     id="g12"
     transform="translate(859.11864,69.423729)">
    <path
       style="clip-rule:evenodd;fill:#eff6ff;fill-rule:evenodd"
       inkscape:connector-curvature="0"
       id="path10"
       d="M 500.484,8.939 H 228.319 c -2.209,0 -4.016,1.8 -4.016,4.001 V 53.636 239.825 C 198,305.576 252.5,396 286.722,401.436 h 172.914 40.848 c 2.209,0 4.016,-1.8 4.016,-4.001 V 12.94 c 0,-2.2 -1.807,-4.001 -4.016,-4.001 z" />
  </g>
  <g
     id="g16"
     transform="translate(859.11864,69.423729)">
    <path
       style="clip-rule:evenodd;fill:#ffbc8a;fill-rule:evenodd"
       inkscape:connector-curvature="0"
       id="path14"
       d="M 150.037,219.048 C 71.296,219.048 7.5,282.635 7.5,361.054 c 0,78.419 63.796,142.006 142.537,142.006 46.671,0 88.121,-22.377 114.11,-56.928 10.011,-13.289 17.727,-28.378 22.575,-44.697 3.786,-12.803 5.823,-26.349 5.823,-40.381 0,-51.327 -27.308,-96.281 -68.242,-121.23 -13.625,-8.288 -28.743,-14.375 -44.864,-17.747 -9.495,-1.972 -19.334,-3.029 -29.402,-3.029 z M 47.545,361.054 c 0,-56.385 45.868,-102.111 102.492,-102.111 56.596,0 102.464,45.726 102.464,102.111 0,56.385 -45.868,102.111 -102.464,102.111 -56.625,0 -102.492,-45.725 -102.492,-102.111 z" />
  </g>
  <g
     id="g20"
     transform="translate(859.11762,69.42273)"
     style="fill:#39c3cc;fill-opacity:1;stroke:none;stroke-opacity:1">
    <path
       style="clip-rule:evenodd;fill:#39c3cc;fill-opacity:1;fill-rule:evenodd;stroke:none;stroke-opacity:1"
       inkscape:connector-curvature="0"
       id="path18"
       d="m 150.037,258.944 c -56.625,0 -102.492,45.726 -102.492,102.111 0,56.385 45.868,102.111 102.492,102.111 56.596,0 102.464,-45.726 102.464,-102.111 0,-56.385 -45.868,-102.111 -102.464,-102.111 z" />
  </g>
  <g
     id="g24"
     transform="translate(859.11864,69.423729)"
     style="fill:#39b1cc;fill-opacity:1">
    <path
       style="clip-rule:evenodd;fill:#39b1cc;fill-rule:evenodd;fill-opacity:1"
       inkscape:connector-curvature="0"
       id="path22"
       d="m 252.5,361.054 c 0,-44.382 -28.398,-82.135 -68.099,-96.224 23.063,25.235 37.119,58.786 37.119,95.595 0,14.032 -2.037,27.578 -5.823,40.381 -4.848,16.318 -12.564,31.408 -22.575,44.697 -3.241,4.315 -6.712,8.431 -10.441,12.346 40.589,-13.574 69.819,-51.784 69.819,-96.795 z" />
  </g>
  <g
     id="g28"
     transform="translate(859.11864,69.423729)">
    <path
       style="clip-rule:evenodd;fill:#f5a96c;fill-rule:evenodd"
       inkscape:connector-curvature="0"
       id="path26"
       d="m 292.545,361.054 c 0,-51.327 -27.308,-96.281 -68.242,-121.23 -13.625,-8.288 -28.743,-14.375 -44.864,-17.747 -9.495,-1.972 -19.334,-3.029 -29.402,-3.029 -11.847,0 -23.321,1.429 -34.308,4.144 13.396,3.544 26.017,8.974 37.549,16.004 11.56,7.059 22.03,15.718 31.123,25.635 39.7,14.089 68.099,51.841 68.099,96.224 0,45.011 -29.23,83.22 -69.82,96.795 -18.445,19.519 -42.397,33.808 -69.39,40.439 11.732,3.115 24.038,4.773 36.746,4.773 46.671,0 88.121,-22.377 114.11,-56.928 10.011,-13.289 17.727,-28.378 22.575,-44.697 3.787,-12.804 5.824,-26.351 5.824,-40.383 z" />
  </g>
  <g
     id="g32"
     transform="translate(859.11864,69.423729)">
    <path
       style="clip-rule:evenodd;fill:#d9eeff;fill-rule:evenodd"
       inkscape:connector-curvature="0"
       id="path30"
       d="M 504.5,397.435 V 12.94 c 0,-2.201 -1.807,-4.001 -4.016,-4.001 H 468.27 c 2.123,0 4.016,1.8 4.016,4.001 v 350.686 33.808 c 0,2.201 -1.807,4.001 -4.016,4.001 h 32.214 c 2.209,10e-4 4.016,-1.8 4.016,-4 z" />
  </g>
  <path
     d="m 899.16264,430.47773 c 0,60.439 49.342,109.611 109.99196,109.611 60.634,0 109.964,-49.171 109.964,-109.611 0,-60.44 -49.33,-109.611 -109.964,-109.611 -60.64896,0 -109.99196,49.172 -109.99196,109.611 z m 204.95596,0 c 0,52.168 -42.601,94.611 -94.964,94.611 -52.37896,0 -94.99196,-42.442 -94.99196,-94.611 0,-52.169 42.613,-94.611 94.99196,-94.611 52.364,0 94.964,42.443 94.964,94.611 z"
     id="path42"
     inkscape:connector-curvature="0" />
  <path
     id="path46"
     d="m 729.4707,-543.10352 c -6.35,0 -11.51562,5.15996 -11.51562,11.50196 v 33.19531 h -33.34766 c -6.35,0 -11.51562,5.158 -11.51562,11.5 v 155.50977 c -7.152,-1.047 -14.46335,-1.59766 -21.90235,-1.59766 -82.73096,0 -150.03711,67.06786 -150.03711,149.50586 0,82.438 67.30615,149.507811 150.03711,149.507811 46.27123,0 87.69394,-21.006832 115.23243,-53.933593 -0.32253,-2.250198 0.51028,-4.947327 3.14453,-7.744141 1.53809,-1.63301 0.53539,-4.867137 2.30273,-6.302737 3.13729,-2.5484 5.8934,-4.3348 8.17969,-5.32617 -0.0376,-2.53373 1.18457,-4.57969 3.30078,-5.52734 3.92451,-7.26027 7.26784,-14.87644 9.95898,-22.79102 h 159.98047 v 0.33008 c 0.63689,-0.0625 1.30208,-0.0996 2.00391,-0.0996 h 0.77344 c 0.93961,-0.11811 1.8289,-0.24721 2.68359,-0.24609 0.5841,7.6e-4 1.15861,0.0721 1.73633,0.23437 1.3216,-0.004 2.64323,0.0214 3.96484,0.0117 2.14392,-0.001 3.29666,-0.0568 3.83789,0.2168 v -0.44727 h 33.34764 c 6.35,0 11.5176,-5.16095 11.5176,-11.50195 v -207.73633 c 0,-4.142 -3.358,-7.5 -7.5,-7.5 -4.142,0 -7.5,3.358 -7.5,7.5 v 204.23828 H 797.5332 c 2.393,-10.584 3.66407,-21.58781 3.66407,-32.88281 0,-52.397 -27.19119,-98.57725 -68.24219,-125.28125 v -219.33399 h 265.19726 v 138.33594 c 0,4.142 3.35796,7.5 7.49996,7.5 4.142,0 7.5,-3.358 7.5,-7.5 v -141.83398 c 0,-6.342 -5.1656,-11.50196 -11.5156,-11.50196 z m -41.3789,59.69727 h 29.86328 v 166.06445 c -9.437,-4.695 -19.43128,-8.43131 -29.86328,-11.07031 z m -36.90235,165.41211 c 74.443,0 135.00782,60.33886 135.00782,134.50586 0,74.167 -60.56382,134.507811 -135.00782,134.507811 -74.45996,0 -135.03711,-60.339811 -135.03711,-134.507811 0,-74.167 60.57715,-134.50586 135.03711,-134.50586 z m 183.50977,224.816406 c 0.32292,0.06678 0.51968,0.08665 0.65234,0.0918 0.0118,-0.0117 0.0234,-0.02338 0.0352,-0.03516 -0.11545,-0.02251 -0.30936,-0.04551 -0.6875,-0.05664 z m -38.03125,1.529296 c -0.0177,0.05779 -0.0314,0.119137 -0.0508,0.175782 -0.0127,0.03699 0.10348,-0.0047 0.11133,-0.04297 0.009,-0.04372 0.0113,-0.08892 0.0195,-0.132813 -0.0267,-7.3e-5 -0.0534,9e-5 -0.0801,0 z" />
  <path
     d="m 1174.4466,170.83673 c 3.832,-1.572 5.664,-5.954 4.091,-9.786 l -21.6,-52.642 c -0.016,-0.039 -0.032,-0.077 -0.048,-0.115 -1.363,-3.17 -4.494,-5.246 -7.977,-5.287 -3.497,-0.026 -6.693,1.968 -8.14,5.122 -0.046,0.101 -0.09,0.203 -0.132,0.306 l -21.371,52.642 c -1.558,3.838 0.29,8.212 4.128,9.771 0.924,0.375 1.879,0.553 2.819,0.553 2.962,0 5.769,-1.767 6.952,-4.681 l 3.414,-8.41 h 24.617 l 3.461,8.436 c 1.573,3.831 5.955,5.665 9.786,4.091 z m -31.774,-27.527 6.153,-15.157 6.219,15.157 z"
     id="path50"
     inkscape:connector-curvature="0" />
  <path
     d="m 1262.3526,435.33073 c 3.834,1.573 8.214,-0.259 9.786,-4.091 l 3.473,-8.465 h 24.593 l 3.426,8.439 c 1.183,2.914 3.989,4.681 6.952,4.681 0.939,0 1.895,-0.178 2.819,-0.553 3.838,-1.558 5.686,-5.933 4.128,-9.771 l -21.371,-52.642 c -0.042,-0.103 -0.085,-0.204 -0.132,-0.305 -1.446,-3.154 -4.651,-5.163 -8.138,-5.124 -3.483,0.042 -6.614,2.116 -7.978,5.286 -0.017,0.039 -0.033,0.078 -0.049,0.117 l -21.6,52.642 c -1.573,3.832 0.259,8.213 4.091,9.786 z m 25.621,-42.684 6.141,15.128 h -12.349 z"
     id="path52"
     inkscape:connector-curvature="0" />
  <g
     transform="matrix(0.53766181,0,0,0.53766181,858.59511,322.94537)"
     id="g948"
     style="clip-rule:evenodd;fill-rule:evenodd;stroke-linejoin:round;stroke-miterlimit:2">
    <g
       transform="matrix(8.4375,0,0,8.4375,146.266,65)"
       id="g931">
      <path
         style="fill:#633001"
         inkscape:connector-curvature="0"
         d="M 5.7,5 C 5.2,2.4 7.2,0 9.8,0 12.1,0 14,1.9 14,4.2 v 5.2 c 0.6,0 1.2,-0.1 1.8,-0.1 0.6,0 1.1,0 1.7,0.1 V 4.2 c 0,-2.3 1.9,-4.2 4.2,-4.2 2.6,0 4.6,2.4 4.2,5 l -1.1,6.1 c 3.9,1.7 6.9,4.7 6.9,8.4 v 2.3 c 0,3.1 -2,5.7 -4.9,7.4 C 23.9,31 20.1,32 15.8,32 11.5,32 7.7,31 4.8,29.2 2,27.5 0,24.9 0,21.8 v -2.3 c 0,-3.7 2.9,-6.7 6.8,-8.4 z m 17.6,6.9 1.3,-7.2 c 0.3,-1.8 -1,-3.5 -2.9,-3.5 -1.6,0 -2.9,1.3 -2.9,2.9 v 6.6 c -0.4,-0.1 -0.9,-0.1 -1.3,-0.1 -0.6,0 -1.1,-0.1 -1.7,-0.1 -0.6,0 -1.2,0 -1.8,0.1 -0.4,0 -0.9,0.1 -1.3,0.1 V 4.2 C 12.7,2.6 11.4,1.3 9.8,1.3 8,1.3 6.6,3 7,4.8 L 8.3,12 c -4.2,1.6 -7,4.4 -7,7.6 v 2.3 c 0,4.9 6.5,8.9 14.5,8.9 8,0 14.5,-4 14.5,-8.9 v -2.3 c 0.1,-3.3 -2.7,-6.1 -7,-7.7 z"
         id="path919" />
      <path
         style="fill:#fedc90;fill-rule:nonzero"
         inkscape:connector-curvature="0"
         d="m 30.4,21.8 c 0,4.9 -6.5,8.9 -14.5,8.9 -8,0 -14.5,-4 -14.5,-8.9 v -2.3 h 29.1 v 2.3 z"
         id="path921" />
      <path
         style="fill:#d1884f"
         inkscape:connector-curvature="0"
         d="M 7,4.8 C 6.6,3 8,1.3 9.8,1.3 c 1.6,0 2.9,1.3 2.9,2.9 v 6.6 c 1,-0.1 2,-0.2 3.1,-0.2 1,0 2,0.1 3,0.2 V 4.2 c 0,-1.6 1.3,-2.9 2.9,-2.9 1.8,0 3.2,1.7 2.9,3.5 L 23.3,12 c 4.2,1.6 7.1,4.4 7.1,7.6 0,4.9 -6.5,8.9 -14.5,8.9 -8,0 -14.5,-4 -14.5,-8.9 0,-3.2 2.8,-6 7,-7.6 z"
         id="path923" />
      <g
         style="fill:#633001;fill-rule:nonzero"
         id="g929">
        <path
           inkscape:connector-curvature="0"
           d="m 11.8,18.9 c 0,1.3 -0.7,2.4 -1.6,2.4 -0.9,0 -1.6,-1.1 -1.6,-2.4 0,-1.3 0.7,-2.4 1.6,-2.4 0.9,0 1.6,1.1 1.6,2.4 z"
           id="path925" />
        <path
           inkscape:connector-curvature="0"
           d="m 22.9,18.9 c 0,1.3 -0.7,2.4 -1.6,2.4 -0.9,0 -1.6,-1.1 -1.6,-2.4 0,-1.3 0.7,-2.4 1.6,-2.4 0.9,0 1.6,1.1 1.6,2.4 z"
           id="path927" />
      </g>
    </g>
  </g>
</svg>
