<?xml version="1.0" encoding="iso-8859-1"?>
<!-- Generator: Adobe Illustrator 19.0.0, SVG Export Plug-In . SVG Version: 6.00 Build 0)  -->
<svg version="1.1" id="Capa_1" xmlns="http://www.w3.org/2000/svg" xmlns:xlink="http://www.w3.org/1999/xlink" x="0px" y="0px"
	 viewBox="0 0 512 512" style="enable-background:new 0 0 512 512;" xml:space="preserve">
<polygon style="fill:#8D584E;" points="354.5,269.75 324.5,284.75 354.5,299.75 404.5,299.75 404.5,269.75 "/>
<rect x="107.5" y="269.75" style="fill:#A96A5B;" width="247" height="30"/>
<polygon style="fill:#1CB9FD;" points="67.5,269.75 97.5,359.75 127.5,344.75 127.5,299.75 "/>
<path style="fill:#60CEFD;" d="M37.5,299.75c0,24.853,20.147,45,45,45l15,15v-80L37.5,299.75z"/>
<path style="fill:#FDF3A9;" d="M107.5,179.75h-30l20,120h30v-100C127.5,188.704,118.546,179.75,107.5,179.75z"/>
<path style="fill:#60CEFD;" d="M429.5,269.75v75c24.853,0,45-20.147,45-45L429.5,269.75z"/>
<path style="fill:#8FDBFD;" d="M444.5,299.75v-30l-60,30v45l22.5,15l22.5-15C437.784,344.75,444.5,324.603,444.5,299.75z"/>
<polygon style="fill:#C57C68;" points="474.5,344.75 454.5,359.75 474.5,374.75 504.5,374.75 504.5,344.75 "/>
<rect x="384.5" y="344.75" style="fill:#E18F75;" width="90" height="30"/>
<polygon style="fill:#C57C68;" points="97.5,344.75 77.5,359.75 97.5,374.75 127.5,374.75 127.5,344.75 "/>
<rect x="7.5" y="344.75" style="fill:#E18F75;" width="90" height="30"/>
<path style="fill:#8DC051;" d="M454.5,179.75h-30l20,120h30v-100C474.5,188.704,465.546,179.75,454.5,179.75z"/>
<path style="fill:#C3D251;" d="M424.5,179.75h-20c-11.046,0-20,8.954-20,20v100h60v-100C444.5,188.704,435.546,179.75,424.5,179.75z
	"/>
<path style="fill:#FDA181;" d="M82.5,59.75v90c24.853,0,45-20.147,45-45S107.353,59.75,82.5,59.75z"/>
<path style="fill:#FDC0AB;" d="M97.5,104.75c0-24.853-6.716-45-15-45c-24.853,0-45,20.147-45,45s20.147,45,45,45
	C90.784,149.75,97.5,129.603,97.5,104.75z"/>
<path style="fill:#FFFFFF;" d="M99.4,201.548c0-11.046-8.954-20-20-20h-20c-11.046,0-20,8.954-20,20v100h60V201.548z"/>
<path style="fill:#84473C;" d="M429.5,59.75v90c24.853,0,45-20.147,45-45S454.353,59.75,429.5,59.75z"/>
<path style="fill:#8D584E;" d="M444.5,104.75c0-24.853-6.716-45-15-45c-24.853,0-45,20.147-45,45s20.147,45,45,45
	C437.784,149.75,444.5,129.603,444.5,104.75z"/>
<polygon style="fill:#C3D251;" points="225.533,239.75 225.533,208.75 200.533,188.75 175.533,208.75 175.533,239.75 "/>
<rect x="175.53" y="164.75" style="fill:#629D3C;" width="50" height="44"/>
<polygon style="fill:#FD8358;" points="336.467,239.75 336.467,208.75 311.467,188.75 286.467,208.75 286.467,239.75 "/>
<rect x="286.47" y="164.75" style="fill:#F06449;" width="50" height="44"/>
<path d="M504.5,179.75c-4.143,0-7.5,3.357-7.5,7.5v150h-30.808c9.745-9.537,15.808-22.821,15.808-37.5v-100
	c0-15.163-12.337-27.5-27.5-27.5h-50c-15.163,0-27.5,12.337-27.5,27.5v32.5h-33.033v-67.5c0-4.143-3.357-7.5-7.5-7.5h-50
	c-4.143,0-7.5,3.357-7.5,7.5v75c0,4.143,3.357,7.5,7.5,7.5H377v15H135v-15h90.533c4.142,0,7.5-3.357,7.5-7.5v-75
	c0-4.143-3.358-7.5-7.5-7.5h-50c-4.142,0-7.5,3.357-7.5,7.5v67.5H135v-32.5c0-15.163-12.336-27.5-27.5-27.5h-50
	c-15.164,0-27.5,12.337-27.5,27.5v100c0,14.679,6.063,27.963,15.808,37.5H15v-150c0-4.143-3.358-7.5-7.5-7.5s-7.5,3.357-7.5,7.5v275
	c0,4.143,3.358,7.5,7.5,7.5s7.5-3.357,7.5-7.5v-80h105v80c0,4.143,3.358,7.5,7.5,7.5s7.5-3.357,7.5-7.5v-155h242v155
	c0,4.143,3.357,7.5,7.5,7.5s7.5-3.357,7.5-7.5v-80h105v80c0,4.143,3.357,7.5,7.5,7.5s7.5-3.357,7.5-7.5v-275
	C512,183.107,508.643,179.75,504.5,179.75z M328.967,172.25v29h-35v-29H328.967z M293.967,216.25h35v16h-35V216.25z M183.033,232.25
	v-16h35v16H183.033z M218.033,172.25v29h-35v-29H218.033z M444.5,202.25c-4.143,0-7.5,3.357-7.5,7.5c0,12.406-10.094,22.5-22.5,22.5
	H392v-32.5c0-6.893,5.607-12.5,12.5-12.5h50c6.893,0,12.5,5.607,12.5,12.5v92.5h-75v-45h22.5c20.678,0,37.5-16.822,37.5-37.5
	C452,205.607,448.643,202.25,444.5,202.25z M57.5,187.25h50c6.893,0,12.5,5.607,12.5,12.5v32.5H97.5
	c-12.407,0-22.5-10.094-22.5-22.5c0-4.143-3.358-7.5-7.5-7.5s-7.5,3.357-7.5,7.5c0,20.678,16.822,37.5,37.5,37.5H120v45H45v-92.5
	C45,192.857,50.607,187.25,57.5,187.25z M15,367.25v-15h105v15H15z M120,337.25H82.5c-18.11,0-33.261-12.904-36.745-30H120V337.25z
	 M135,292.25v-15h242v15H135z M466.245,307.25c-3.484,17.096-18.635,30-36.745,30H392v-30H466.245z M392,367.25v-15h105v15H392z"/>
<path d="M82.5,157.25c28.949,0,52.5-23.552,52.5-52.5s-23.551-52.5-52.5-52.5S30,75.802,30,104.75S53.551,157.25,82.5,157.25z
	 M82.5,67.25c20.678,0,37.5,16.822,37.5,37.5s-16.822,37.5-37.5,37.5S45,125.428,45,104.75S61.822,67.25,82.5,67.25z"/>
<path d="M206,454.75h-21v-110c0-4.143-3.358-7.5-7.5-7.5h-20c-4.142,0-7.5,3.357-7.5,7.5s3.358,7.5,7.5,7.5H170v110
	c0,4.143,3.358,7.5,7.5,7.5H206c4.142,0,7.5-3.357,7.5-7.5S210.142,454.75,206,454.75z"/>
<path d="M354.5,337.25h-20c-4.143,0-7.5,3.357-7.5,7.5v110h-21c-4.143,0-7.5,3.357-7.5,7.5s3.357,7.5,7.5,7.5h28.5
	c4.143,0,7.5-3.357,7.5-7.5v-110h12.5c4.143,0,7.5-3.357,7.5-7.5S358.643,337.25,354.5,337.25z"/>
<path d="M374.5,112.25h3.044c3.652,25.407,25.554,45,51.956,45s48.304-19.593,51.956-45h3.044c4.143,0,7.5-3.357,7.5-7.5
	s-3.357-7.5-7.5-7.5h-3.044c-0.6-4.171-1.695-8.182-3.218-11.979l2.644-1.526c3.587-2.07,4.816-6.657,2.745-10.245
	c-2.07-3.588-6.656-4.815-10.245-2.745l-2.664,1.538c-2.567-3.253-5.508-6.194-8.761-8.761l1.538-2.664
	c2.071-3.588,0.842-8.175-2.745-10.245c-3.589-2.074-8.175-0.843-10.245,2.745l-1.526,2.644c-3.797-1.523-7.807-2.618-11.979-3.218
	V49.75c0-4.143-3.357-7.5-7.5-7.5s-7.5,3.357-7.5,7.5v3.044c-4.171,0.6-8.182,1.695-11.979,3.218l-1.526-2.644
	c-2.07-3.587-6.656-4.815-10.245-2.745c-3.587,2.07-4.816,6.657-2.745,10.245l1.538,2.664c-3.253,2.567-6.194,5.508-8.761,8.761
	l-2.664-1.538c-3.59-2.074-8.175-0.843-10.245,2.745c-2.071,3.588-0.842,8.175,2.745,10.245l2.644,1.526
	c-1.523,3.797-2.618,7.807-3.218,11.979H374.5c-4.143,0-7.5,3.357-7.5,7.5S370.357,112.25,374.5,112.25z M429.5,142.25
	c-20.678,0-37.5-16.822-37.5-37.5s16.822-37.5,37.5-37.5s37.5,16.822,37.5,37.5S450.178,142.25,429.5,142.25z"/>
<g>
</g>
<g>
</g>
<g>
</g>
<g>
</g>
<g>
</g>
<g>
</g>
<g>
</g>
<g>
</g>
<g>
</g>
<g>
</g>
<g>
</g>
<g>
</g>
<g>
</g>
<g>
</g>
<g>
</g>
</svg>
